<?xml version="1.0" encoding="UTF-8" standalone="no"?>
<!-- Created with Inkscape (http://www.inkscape.org/) -->

<svg
   version="1.1"
   id="svg1"
   width="200"
   height="200"
   viewBox="0 0 200 200"
   sodipodi:docname="logo.svg"
   inkscape:version="1.3.2 (091e20ef0f, 2023-11-25)"
   xmlns:inkscape="http://www.inkscape.org/namespaces/inkscape"
   xmlns:sodipodi="http://sodipodi.sourceforge.net/DTD/sodipodi-0.dtd"
   xmlns="http://www.w3.org/2000/svg"
   xmlns:svg="http://www.w3.org/2000/svg">
  <defs
     id="defs1" />
  <sodipodi:namedview
     id="namedview1"
     pagecolor="#ffffff"
     bordercolor="#000000"
     borderopacity="0.25"
     inkscape:showpageshadow="2"
     inkscape:pageopacity="0.0"
     inkscape:pagecheckerboard="0"
     inkscape:deskcolor="#d1d1d1"
     inkscape:zoom="5.82"
     inkscape:cx="100"
     inkscape:cy="100"
     inkscape:window-width="2560"
     inkscape:window-height="1368"
     inkscape:window-x="0"
     inkscape:window-y="0"
     inkscape:window-maximized="1"
     inkscape:current-layer="g1" />
  <g
     inkscape:groupmode="layer"
     inkscape:label="Image"
     id="g1">
    <path
       style="fill:#010101;stroke:none;stroke-width:0.944093"
       d="m 66.012645,48.041367 c -42.474432,0 -60.4219642,-5.943589 -60.4219642,41.540101 H 39.578035 c 5.404236,-11.212681 28.583128,-11.212672 33.987356,0 h 52.869219 c 5.40422,-11.212672 28.58314,-11.212672 33.98736,0 h 33.98735 c 0,-47.48369 -17.94753,-41.540101 -60.42196,-41.540101 0,-34.055158 -67.974715,-34.055158 -67.974715,0 m 60.421965,0 H 73.565391 c 0,-23.508309 52.869219,-23.508309 52.869219,0 M 47.130781,89.581468 v 7.552745 H 66.012645 V 89.581468 H 47.130781 m 86.856579,0 v 7.552745 h 18.88187 V 89.581468 H 133.98736 M 5.5906808,97.134213 c 0,16.430527 -7.9706285,62.819047 3.0634464,75.239967 7.3288048,8.24992 29.6179338,4.06387 39.7354438,4.06387 H 154.12801 c 9.70979,0 30.15075,3.89148 37.21787,-4.06387 11.03407,-12.42092 3.06344,-58.80945 3.06344,-75.239967 h -33.98735 c -5.40422,11.212677 -28.58314,11.212677 -33.98736,0 H 73.565391 c -5.404228,11.212677 -28.583123,11.212677 -33.987356,0 z"
       id="path1" />
  </g>
</svg>
